<svg xmlns="http://www.w3.org/2000/svg" width="44" height="44" viewBox="0 0 44 44">
  <g id="Groupe_12589" data-name="Groupe 12589" transform="translate(-75 -30)">
    <rect id="Rectangle_5164" data-name="Rectangle 5164" width="31" height="31" rx="15.5" transform="translate(88 43)" fill="#ffd0b6"/>
    <g id="chauffage-red" transform="translate(75 30)">
      <g id="icon_poele_bois_cta">
        <path id="Tracé_28843" data-name="Tracé 28843" d="M26,15.232V29.8l-3.415,1.9V34.9H19.055V31.7H7.766V34.43H4.75L4.232,31.7H3.1L.808,29.8V8.855l1.867-2.23H25.1s.673.477.9,2.628A49.293,49.293,0,0,1,26,15.232Z" transform="translate(3.708 -0.958)" fill="#fff"/>
        <g id="Groupe_7972" data-name="Groupe 7972">
          <g id="Groupe_7971" data-name="Groupe 7971">
            <rect id="Rectangle_2586" data-name="Rectangle 2586" width="34" height="34" fill="none"/>
          </g>
        </g>
        <g id="Groupe_7973" data-name="Groupe 7973" transform="translate(12.254 11.511)">
          <path id="Tracé_25793" data-name="Tracé 25793" d="M42.892,38.873a4.22,4.22,0,0,0-.854-2.525c-.111,1.3-.557,1.968-1.114,1.857-.074-3.862-1.634-5.2-2.748-5.9a9.756,9.756,0,0,1-2.042,6.016c-.891-.408-.743-2.005-.743-2.005a4.206,4.206,0,0,0,3.3,6.8C41.258,43.069,42.892,41.992,42.892,38.873Z" transform="translate(-33.943 -31.817)" fill="#ffd0b6"/>
          <path id="Tracé_25794" data-name="Tracé 25794" d="M37.753,42.809A4.739,4.739,0,0,1,33,38.055a4.679,4.679,0,0,1,1-2.934l1,.371a2.889,2.889,0,0,0,.149,1.077,9.258,9.258,0,0,0,1.522-5.087L37.53,31c1.114.706,2.562,1.968,2.934,5.124q.056-.279.111-.668l1-.3a4.661,4.661,0,0,1,.965,2.859Q42.488,42.809,37.753,42.809Zm-3.565-5.57a5.563,5.563,0,0,0-.074.817,3.645,3.645,0,0,0,3.639,3.639c2.525,0,3.639-1.114,3.639-3.639a3.741,3.741,0,0,0-.111-.928,1.914,1.914,0,0,1-.446.594,1.2,1.2,0,0,1-.928.26l-.483-.557c-.074-2.674-.817-4.01-1.671-4.827a10.7,10.7,0,0,1-2.117,5.273l-.668.149A2.234,2.234,0,0,1,34.188,37.238Z" transform="translate(-33 -31)" fill="#003250"/>
        </g>
        <path id="Union_16" data-name="Union 16" d="M19.272,34.2l-.743-.743V31.266H8.318v2.191l-.743.743H4.307l-.743-.743V31.266H2.97A2.979,2.979,0,0,1,0,28.3V7.909A2.98,2.98,0,0,1,2.97,4.938h5.9V0H10.36V4.938h6.127V0h1.485V4.938H23.58a2.98,2.98,0,0,1,2.97,2.971V22.837H25.065V7.909A1.489,1.489,0,0,0,23.58,6.424H2.97A1.489,1.489,0,0,0,1.485,7.909V28.3A1.49,1.49,0,0,0,2.97,29.781H23.58A1.49,1.49,0,0,0,25.065,28.3v-2.08H26.55V28.3a2.987,2.987,0,0,1-3.008,2.97h-.259v2.191l-.743.743Zm.743-1.485H21.8V31.3H20.015Zm-14.965,0H6.832V31.3H5.05Z" transform="translate(3.825 0)" fill="#003250"/>
        <path id="Tracé_25796" data-name="Tracé 25796" d="M37.187,42.241H23a2.314,2.314,0,0,1-2.3-2.3V25.9A2.314,2.314,0,0,1,23,23.6H37.225a2.314,2.314,0,0,1,2.3,2.3V39.976A2.339,2.339,0,0,1,37.187,42.241ZM23,25.122a.824.824,0,0,0-.817.817V40.013A.824.824,0,0,0,23,40.83H37.225a.824.824,0,0,0,.817-.817V25.9a.824.824,0,0,0-.817-.817H23Z" transform="translate(-13.013 -14.836)" fill="#003250"/>
        <path id="Union_15" data-name="Union 15" d="M5.965,2.458l-5.7.947L.018,1.94l1.414-.235L0,1.468.244,0l5.723.95L11.7,0l.243,1.465-1.445.24,1.428.237-.243,1.466Z" transform="translate(10.97 21.395)" fill="#003250"/>
      </g>
    </g>
  </g>
</svg>